<!-- Generated by IcoMoon.io -->
<svg version="1.1" xmlns="http://www.w3.org/2000/svg" width="70" height="32" viewBox="0 0 70 32">
<title>computer</title>
<path fill="#f5f4fa" d="M2 0h65.5c0.552 0 1 0.448 1 1v28c0 0.552-0.448 1-1 1h-65.5c-0.552 0-1-0.448-1-1v-28c0-0.552 0.448-1 1-1z"></path>
<path fill="#2196f3" d="M34.163 14.434h0.583v2.624h-0.583v-2.624zM36.495 15.6h0.583v1.458h-0.583v-1.457zM31.83 16.474h0.583v0.583h-0.583v-0.583zM30.081 16.183h0.583v0.875h-0.583v-0.875z"></path>
<path fill="#212121" d="M26.875 21.721h13.993c0.483 0 0.874-0.392 0.874-0.875v-1.166c0-0.483-0.392-0.875-0.874-0.875v0h-0.291v-7.27l1.656-1.568c0.113 0.057 0.247 0.091 0.389 0.091 0.486 0 0.88-0.394 0.88-0.88s-0.394-0.88-0.88-0.88c-0.486 0-0.88 0.394-0.88 0.88 0 0.135 0.030 0.262 0.084 0.377l-0.002-0.005-1.248 1.183v-0.672c-0-0.483-0.392-0.874-0.874-0.874h-11.661c-0.483 0-0.874 0.392-0.875 0.874v0 8.745h-0.291c-0.483 0-0.875 0.392-0.875 0.875v1.166c0 0.483 0.392 0.875 0.875 0.875v0zM42.616 8.895c0.161 0 0.291 0.13 0.291 0.291s-0.13 0.291-0.291 0.291v0c-0.161 0-0.291-0.13-0.291-0.291s0.13-0.291 0.291-0.291v0zM27.749 10.061c0-0.161 0.131-0.291 0.291-0.291h11.661c0.161 0 0.291 0.13 0.291 0.291v1.224l-0.583 0.554v-1.195c0-0.161-0.131-0.292-0.291-0.292h-10.495c-0.161 0-0.292 0.13-0.292 0.291v7.288c0 0.161 0.131 0.291 0.292 0.291h10.495c0.161 0 0.291-0.131 0.291-0.291v-5.291l0.583-0.553v6.717h-12.244v-8.745zM30.373 13.851c-0.001 0-0.002 0-0.003 0-0.483 0-0.875 0.392-0.875 0.874s0.392 0.874 0.875 0.874c0.236 0 0.451-0.094 0.608-0.246l-0 0 1.013 0.508c0.038 0.019 0.083 0.031 0.13 0.031 0.086 0 0.164-0.038 0.218-0.097l2.154-2.424 2.117 1.587c0.114 0.085 0.272 0.076 0.375-0.021l1.84-1.743v4.447h-9.911v-6.705h9.911v1.455l-2.063 1.953-2.135-1.601c-0.048-0.036-0.109-0.058-0.175-0.058-0.086 0-0.164 0.038-0.218 0.097l-2.184 2.457-0.816-0.408c0.005-0.031 0.009-0.067 0.011-0.104l0-0.002c0-0.483-0.392-0.874-0.875-0.874v0zM30.664 14.725c0 0.161-0.131 0.291-0.291 0.291s-0.291-0.13-0.291-0.291v0c0-0.161 0.131-0.291 0.291-0.291s0.291 0.13 0.291 0.291v0zM32.413 19.39h2.915v0.291c0 0.161-0.13 0.291-0.291 0.291h-2.332c-0.161 0-0.291-0.131-0.291-0.291v0-0.291zM26.583 19.681c0-0.161 0.131-0.291 0.291-0.291h4.956v0.291c0 0.483 0.392 0.875 0.874 0.875v0h2.332c0.483 0 0.874-0.392 0.874-0.875v0-0.291h4.956c0.161 0 0.291 0.131 0.291 0.291v1.166c0 0.161-0.13 0.291-0.291 0.291h-13.993c-0.161 0-0.291-0.131-0.291-0.291v0-1.166z"></path>
</svg>
